HIERARCHY
ROOT Hips
{
	OFFSET 0.000000 0.000000 0.000000
	CHANNELS 6 Xposition Yposition Zposition Xrotation Yrotation Zrotation
	JOINT Chest
	{
		OFFSET 0.000000 0.009282 11.569106
		CHANNELS 3 Xrotation Yrotation Zrotation
		JOINT Chest2
		{
			OFFSET 0.000000 -0.016863 9.269641
			CHANNELS 3 Xrotation Yrotation Zrotation
			JOINT Chest3
			{
				OFFSET 0.000000 0.000000 8.374491
				CHANNELS 3 Xrotation Yrotation Zrotation
				JOINT Chest4
				{
					OFFSET 0.000000 0.000000 8.374493
					CHANNELS 3 Xrotation Yrotation Zrotation
					JOINT Neck
					{
						OFFSET 0.000000 -0.000001 12.152554
						CHANNELS 3 Xrotation Yrotation Zrotation
						JOINT Head
						{
							OFFSET 0.000000 -0.040100 7.802319
							CHANNELS 3 Xrotation Yrotation Zrotation
							End Site
							{
								OFFSET 0.000000 -0.020946 14.853096
							}
						}
					}
					JOINT RightCollar
					{
						OFFSET -2.894404 0.000000 6.791374
						CHANNELS 3 Xrotation Yrotation Zrotation
						JOINT RightShoulder
						{
							OFFSET -13.574684 0.000000 0.000000
							CHANNELS 3 Xrotation Yrotation Zrotation
							JOINT RightElbow
							{
								OFFSET -23.923903 0.000000 0.000000
								CHANNELS 3 Xrotation Yrotation Zrotation
								JOINT RightWrist
								{
									OFFSET -19.846718 -0.012765 0.000000
									CHANNELS 3 Xrotation Yrotation Zrotation
									End Site
									{
										OFFSET -14.973145 0.000000 0.000000
									}
								}
							}
						}
					}
					JOINT LeftCollar
					{
						OFFSET 2.894404 0.000000 6.791374
						CHANNELS 3 Xrotation Yrotation Zrotation
						JOINT LeftShoulder
						{
							OFFSET 13.574684 0.000000 0.000000
							CHANNELS 3 Xrotation Yrotation Zrotation
							JOINT LeftElbow
							{
								OFFSET 23.923903 0.000000 0.000000
								CHANNELS 3 Xrotation Yrotation Zrotation
								JOINT LeftWrist
								{
									OFFSET 19.846718 -0.012765 0.000000
									CHANNELS 3 Xrotation Yrotation Zrotation
									End Site
									{
										OFFSET 14.973145 0.000000 0.000000
									}
								}
							}
						}
					}
				}
			}
		}
	}
	JOINT RightHip
	{
		OFFSET -9.469263 -0.004642 0.045487
		CHANNELS 3 Xrotation Yrotation Zrotation
		JOINT RightKnee
		{
			OFFSET 0.000000 -0.002666 -40.478676
			CHANNELS 3 Xrotation Yrotation Zrotation
			JOINT RightAnkle
			{
				OFFSET 0.000000 -0.049110 -35.224068
				CHANNELS 3 Xrotation Yrotation Zrotation
				JOINT RightToe
				{
					OFFSET 0.000000 -12.539530 -6.151390
					CHANNELS 3 Xrotation Yrotation Zrotation
					End Site
					{
						OFFSET 0.000000 -5.044995 -1.291870
					}
				}
			}
		}
	}
	JOINT LeftHip
	{
		OFFSET 9.469263 -0.004642 0.045487
		CHANNELS 3 Xrotation Yrotation Zrotation
		JOINT LeftKnee
		{
			OFFSET 0.000000 -0.002666 -40.478676
			CHANNELS 3 Xrotation Yrotation Zrotation
			JOINT LeftAnkle
			{
				OFFSET 0.000000 -0.049110 -35.224068
				CHANNELS 3 Xrotation Yrotation Zrotation
				JOINT LeftToe
				{
					OFFSET 0.000000 -12.539530 -6.151390
					CHANNELS 3 Xrotation Yrotation Zrotation
					End Site
					{
						OFFSET 0.000000 -5.044995 -1.291870
					}
				}
			}
		}
	}
}
MOTION
Frames: 7
Frame Time: 0.016667
-12.239418 -7.796081 83.142204 2.449437 5.493906 -113.137617 4.845498 0.804715 7.157200 2.163414 0.285573 3.178116 2.163414 0.285573 3.178117 1.624094 0.202939 2.384632 18.636412 -4.906260 -6.481070 -1.819611 -6.844558 -13.453661 -1.407638 -12.564396 -14.709156 -37.630610 -77.076820 -25.754517 12.577453 2.183405 0.803015 -20.833242 25.928322 36.112136 7.616684 5.152838 -18.357267 -3.128163 77.657516 -12.757185 -4.256412 -5.591326 3.350059 2.592937 -17.445159 -30.035125 8.241744 0.589852 -2.657915 1.672201 -0.918045 -2.629320 -3.898175 -0.703290 1.220993 0.019957 -0.034575 0.038305 7.639972 0.405443 -0.093095 0.834612 -0.265758 -1.541918 -2.426168 0.764783 1.638143 0.033306 0.015304 -0.035084 
-12.168069 -7.822695 83.144585 2.463892 5.539638 -113.144782 4.930619 0.828259 7.161556 2.201504 0.294407 3.179788 2.201504 0.294407 3.179782 1.652711 0.209360 2.385932 18.731640 -4.951649 -6.453659 -1.648855 -6.945302 -13.413818 -1.424513 -12.605852 -14.739681 -37.177003 -77.111449 -25.282575 12.670408 2.158673 0.886150 -20.762786 25.858205 36.038598 7.582170 5.128785 -18.333227 -2.608371 77.582240 -13.301052 -4.382901 -5.560113 3.309560 2.471718 -17.533063 -30.138613 8.150491 0.605345 -2.676024 1.844493 -0.941019 -2.597468 -3.929467 -0.680045 1.210309 0.016048 -0.034565 0.037175 7.593207 0.394677 -0.048102 0.918697 -0.241438 -1.561970 -2.417611 0.761794 1.607008 0.032766 0.012021 -0.034663 
-12.095052 -7.851604 83.147560 2.473796 5.574617 -113.150826 5.020756 0.857017 7.157182 2.242489 0.305505 3.177145 2.242491 0.305505 3.177144 1.683506 0.217482 2.384011 18.751863 -4.978335 -6.415327 -1.615187 -7.008160 -13.351886 -1.383224 -12.662733 -14.739712 -36.862855 -77.153229 -24.894742 12.746187 2.148372 0.965791 -20.655349 25.754669 35.902896 7.596706 5.086546 -18.280233 -2.181835 77.520079 -13.821253 -4.480033 -5.561482 3.311183 2.445739 -17.679467 -30.254716 8.045311 0.626637 -2.700647 2.018814 -0.971535 -2.562744 -3.959474 -0.654685 1.205791 0.011283 -0.034654 0.035953 7.537168 0.390844 0.005472 0.991481 -0.224316 -1.588406 -2.401533 0.764278 1.581030 0.032653 0.005064 -0.033895 
-12.020568 -7.881657 83.149078 2.471332 5.587842 -113.149317 5.118029 0.891574 7.157905 2.286249 0.319634 3.176789 2.286249 0.319634 3.176790 1.716398 0.227852 2.383822 18.717606 -4.998923 -6.372957 -1.681989 -7.055950 -13.283621 -1.281038 -12.728547 -14.716484 -36.818746 -77.193582 -24.713303 12.757968 2.138934 1.059815 -20.538633 25.627681 35.753800 7.662369 5.007458 -18.260419 -2.009266 77.475840 -14.157875 -4.504312 -5.571107 3.330188 2.410881 -17.872027 -30.393577 7.918608 0.646146 -2.737007 2.184709 -0.995438 -2.524658 -3.986051 -0.631536 1.204523 0.008592 -0.034976 0.034931 7.456044 0.384529 0.054190 1.061773 -0.200056 -1.620793 -2.384880 0.768293 1.575138 0.034067 -0.004298 -0.032501 
-11.946378 -7.913359 83.148666 2.457237 5.568114 -113.142630 5.211775 0.933900 7.164160 2.327895 0.336605 3.178748 2.327894 0.336605 3.178746 1.747723 0.240358 2.385376 18.639410 -5.015113 -6.325304 -1.829876 -7.093270 -13.206762 -1.221465 -12.798990 -14.683599 -36.804071 -77.227310 -24.602355 12.731492 2.121962 1.144155 -20.465144 25.534230 35.644220 7.692604 4.914305 -18.271395 -1.894316 77.452706 -14.380726 -4.496966 -5.584800 3.343747 2.308919 -18.071294 -30.543237 7.762554 0.668102 -2.774412 2.340568 -1.027731 -2.504472 -4.010211 -0.605464 1.215069 0.008511 -0.035870 0.034068 7.343407 0.378145 0.090231 1.124136 -0.179213 -1.643644 -2.368604 0.777911 1.571827 0.039911 -0.015781 -0.031426 
-11.875320 -7.948184 83.147690 2.433512 5.524339 -113.134844 5.286521 0.974209 7.170210 2.361049 0.352514 3.180733 2.361049 0.352514 3.180731 1.772672 0.252109 2.386946 18.533793 -5.019926 -6.275749 -2.027290 -7.107990 -13.124138 -1.212923 -12.859849 -14.658774 -36.626623 -77.258763 -24.398289 12.706921 2.115954 1.185195 -20.418939 25.464195 35.578312 7.697131 4.842496 -18.281577 -1.666870 77.424033 -14.635101 -4.520956 -5.575162 3.337944 2.230746 -18.227951 -30.648377 7.589737 0.694435 -2.803576 2.479053 -1.064087 -2.499043 -4.025879 -0.582993 1.233558 0.008703 -0.034910 0.032786 7.209507 0.375387 0.138069 1.181239 -0.167053 -1.667679 -2.353454 0.796466 1.530923 0.046933 -0.028536 -0.031224 
-11.809491 -7.982247 83.147507 2.404280 5.465073 -113.128908 5.349372 1.014480 7.177622 2.389086 0.368974 3.183022 2.389086 0.368974 3.183024 1.793789 0.264301 2.388746 18.414470 -5.020908 -6.224079 -2.249732 -7.115253 -13.037144 -1.208871 -12.915118 -14.639880 -36.412206 -77.295441 -24.159190 12.724204 2.127791 1.170541 -20.368966 25.402138 35.509730 7.692653 4.769001 -18.296719 -1.398589 77.400735 -14.902670 -4.595895 -5.560414 3.346634 2.214192 -18.332103 -30.721300 7.411932 0.722403 -2.821294 2.601012 -1.104122 -2.499590 -4.035377 -0.561204 1.247724 0.007892 -0.032635 0.030906 7.068623 0.370253 0.216644 1.225514 -0.146185 -1.724196 -2.334219 0.811623 1.501288 0.052559 -0.042401 -0.029438 
